<svg width="162" height="191" viewBox="0 0 162 191" fill="none" xmlns="http://www.w3.org/2000/svg">
<g clip-path="url(#clip0_1_5)">
<path d="M77.0726 0.990921C80.9875 0.610985 86.2484 0.814902 89.9606 2.46174C90.5042 2.7029 91.7607 3.93071 92.5191 4.30485C96.8447 6.43863 101.449 13.0788 101.603 18.0616C110.977 17.8377 120.546 18.1728 129.918 18.0581C142.233 17.9076 142.392 24.5939 142.28 34.3174L142.239 44.294L142.261 60.6404C142.267 65.3374 142.398 70.5198 141.865 75.1859C141.46 78.7258 140.25 83.2058 139.506 86.7429C138.789 90.1536 137.318 93.7904 136.288 97.1342C135.977 98.1449 134.682 99.7219 134.321 100.81C132.988 103.667 131.665 107.28 129.948 109.908C127.432 113.756 124.786 117.728 122.197 121.533C121.512 122.541 120.19 123.737 119.377 124.707C112.44 133.146 104.371 140.587 95.3976 146.817C92.2266 149.039 83.6426 156.015 79.4578 154.64C75.0017 153.175 69.6852 148.778 66.0438 145.748C63.3507 143.507 60.7388 142.14 58.8808 138.976C59.3714 137.772 59.7513 133.593 59.9563 132.141C60.5606 127.861 61.0261 123.561 61.7372 119.285C62.006 117.669 62.3972 116.126 62.6753 114.521C63.0799 112.188 63.41 108.162 64.2382 106.099C65.3719 105.814 73.9123 105.923 75.6048 105.928L98.3634 105.892C100.89 106.002 103.229 105.907 105.758 105.822C103.573 110.6 100.282 113.335 94.8809 113.979C90.685 114.48 85.7586 114.19 81.5107 114.204C79.1321 114.212 72.9971 114.533 70.9384 114.002C70.8843 116.948 70.2276 120.168 69.978 123.147C69.9161 123.886 69.1004 126.129 69.0631 126.683C68.9147 128.886 67.3069 135.035 67.9085 136.741C68.7946 137.661 79.3901 146.001 80.4752 146.103C82.8901 146.329 90.6088 140.235 92.813 138.55C93.8038 137.793 95.6368 136.53 96.6697 135.678C100.038 132.218 104.119 129.782 107.095 125.936C107.82 125.103 108.931 124.337 109.641 123.525C116.363 115.836 122.641 107.702 126.725 98.2623C127.498 96.4762 128.602 94.6271 129.245 92.7488C131.36 86.5681 132.793 80.1232 133.421 73.6176C133.766 67.7652 133.614 61.018 133.612 55.1306L133.6 26.2253C125.544 26.4269 116.71 26.2454 108.596 26.248L99.5632 26.2579C97.8346 26.26 96.0264 26.3131 94.3125 26.1774C93.7795 26.1353 93.7978 25.3188 93.8032 24.8569C93.8513 20.7907 94.0831 17.3739 91.2965 14.0418C87.7371 9.78521 81.7896 7.56065 76.4314 9.63784C74.6333 10.3349 72.4452 12.0909 70.7312 12.438C68.1302 12.9648 64.4518 12.4964 61.7758 12.2354C63.4931 9.94349 64.3341 7.64053 66.6877 5.77271C70.1261 3.04411 72.754 1.8044 77.0726 0.990921Z" fill="#FEFEFE"/>
<path d="M66.3675 17.9429L67.0966 17.9031C67.4056 18.0863 67.6356 18.1836 67.6725 18.6384C67.9183 21.0224 67.1042 23.6761 67.8949 26.0292C69.7049 31.4147 73.8149 34.7053 79.4132 35.4021C83.3409 35.8909 87.3999 34.1274 90.3832 31.8855C90.9334 31.8346 92.5745 31.8094 93.0987 31.877C94.3266 32.035 98.9717 31.6349 99.6431 32.3355L99.5927 32.5824C99.0427 33.023 99.0015 33.2603 98.6814 33.8504C95.2982 40.0903 86.2688 44.4568 79.3251 43.821C72.5205 42.9381 66.8383 39.8732 62.9892 34.1553C60.8353 30.9553 60.6753 29.8975 59.5355 26.3313C59.4309 26.3044 59.3254 26.2812 59.2192 26.2619C58.5681 26.1434 50.2678 26.2144 49.2175 26.2147L36.2002 26.2239C34.992 26.2257 28.5753 26.129 28.0288 26.497C27.5379 27.5732 27.7971 34.2216 27.8039 35.7718L27.8129 52.3107L27.8063 65.0378C27.8124 67.7469 27.9713 72.7709 28.1787 75.2599C28.4804 78.8799 34.4671 98.497 36.5195 99.4364C37.4008 98.6623 39.3236 82.0441 39.6255 79.62C40.0648 75.9462 40.5516 72.2783 41.0854 68.617C42.7856 56.422 44.1447 47.3092 58.939 47.7055C61.9239 47.7854 65.2688 47.7126 68.2838 47.7179L93.3003 47.7262C96.0296 47.7239 118.633 47.4565 119.555 47.9569C120.142 48.8136 119.651 49.9488 119.456 50.9289C118.371 56.404 118.923 56.224 113.38 56.1328C111.167 56.0965 108.278 56.1194 106.016 56.1186L73.5496 56.1061C67.8347 56.1045 62.0655 56.0612 56.3526 56.1585C55.7144 56.1692 54.1472 56.2931 53.6758 56.613C53.0904 57.0101 51.6701 57.7188 51.4458 58.3665C50.5147 61.0545 50.438 64.3265 49.9961 67.0704C48.2016 77.5842 46.655 88.1389 45.3578 98.7257C44.7538 103.358 44.2458 108.02 43.4986 112.636C43.2891 113.931 42.6968 120.893 40.9795 120.678C40.2268 119.921 39.2353 118.445 38.5212 117.57C36.507 115.102 34.7387 112.382 33.0447 109.687C32.3184 108.532 31.6303 106.888 30.9066 105.662C29.4544 103.204 28.0228 100.659 26.8517 98.0516C26.2362 96.6813 25.5941 94.9823 25.0423 93.5642C24.4797 92.118 23.4278 90.0385 23.0045 88.6768C21.4977 83.8314 20.4775 79.1011 19.9119 74.0601C19.3987 69.4855 19.4525 64.9585 19.4552 60.3795L19.4696 44.8292L19.4381 34.4647C19.4259 31.6615 19.3528 28.9173 19.705 26.125C20.8798 16.8097 30.3794 18.0741 37.3375 18.0766L55.8898 18.0908C58.7577 18.0927 63.662 18.2361 66.3675 17.9429Z" fill="#FEFEFE"/>
<path d="M69.1865 70.106C77.8544 69.8742 87.1066 70.0834 95.8213 70.0471C99.8085 70.0133 103.796 70.009 107.783 70.0343C109.657 70.0449 112.272 69.9786 114.072 70.1854C112.331 73.4952 109.206 77.2019 105.246 77.7285C98.0103 78.6913 90.3523 77.884 83.0308 78.1449C80.7513 78.2262 78.2245 78.2102 75.9505 78.137C75.9566 81.6521 75.5964 81.9008 74.8856 85.2365C76.5168 84.9635 79.7106 85.0892 81.4426 85.1169C90.1008 85.1152 98.8255 85.1895 107.48 85.0514C108.216 85.0397 108.305 85.0829 108.797 85.5417C109.429 87.1862 108.88 92.0032 107.436 93.2108C106.52 93.3747 104.64 93.2815 103.586 93.2892C100.465 93.3148 97.3452 93.3239 94.225 93.3166L75.7779 93.3152C74.3782 93.3142 66.7563 93.5099 66.0854 93.0524C65.3157 91.2343 67.2292 82.3748 67.3732 79.835C67.4692 78.14 68.2385 71.093 69.1865 70.106Z" fill="#FEFEFE"/>
<path d="M65.9967 172.002C68.5956 169.686 69.4379 169.437 73.0063 169.553C74.4047 169.599 75.7198 170.22 76.6501 171.256C77.6972 172.424 77.9884 173.838 77.8228 175.379C77.4044 179.276 76.8674 183.234 76.2329 187.101C76.0908 187.967 75.9239 189.804 75.6901 190.477H67.738C67.6184 187.523 68.2237 184.846 68.6377 181.94C68.865 180.344 69.1931 178.901 69.5945 177.346C69.7041 176.776 69.5507 175.985 68.9049 175.789C65.4709 174.753 66.0414 178.315 65.7226 180.087C65.1091 183.497 65.2436 187.412 63.7763 190.477H57.0947C56.2023 188.265 57.3901 183.003 57.5915 180.537C57.7225 178.932 57.7375 177.218 57.7805 175.604C56.5151 175.484 56.1147 175.571 54.9039 175.824C54.0299 179.765 53.4193 186.173 52.7905 190.477H44.9746C44.7625 186.686 46.1573 181.597 46.56 177.763C46.8201 175.289 46.8205 172.291 47.8585 170.054C48.2543 169.307 52.6638 169.614 53.5094 170.038C54.049 170.674 53.6552 171.605 54.1558 172.163C54.8493 171.957 55.7327 171.141 56.3877 170.693C58.458 169.279 61.5508 169.258 63.8767 170.013C64.5254 170.681 65.2414 171.48 65.9967 172.002Z" fill="#FEFEFE"/>
<path d="M102.254 190.477C101.55 188.755 102.374 187.322 102.611 185.435L104.58 169.986C104.752 168.741 105.543 162.449 106.155 161.824C107.029 161.604 112.745 161.555 113.5 161.81C113.958 162.601 112.63 169.749 112.466 171.443C114.678 170.024 116.665 169.069 119.413 169.697C127.117 171.456 124.88 184.64 120.104 188.352C119.176 189.073 117.898 189.61 116.987 190.477H111.288C107.817 187.672 107.672 186.988 104.353 190.477H102.254ZM111.919 176.169C111.626 178.798 109.144 185.685 113.282 185.397C114.378 184.74 115.421 183.595 115.551 182.245C115.746 180.215 117.752 174.489 114.08 174.655C112.913 175.023 112.648 175.188 111.919 176.169Z" fill="#FEFEFE"/>
<path d="M127.001 188.542C126.671 187.691 125.84 185.628 125.683 184.826C125.111 181.885 125.783 177.887 126.929 175.17C127.838 173.065 129.979 170.788 132.111 169.981C133.546 169.439 136.233 169.311 137.552 170.016C140.599 171.644 139.734 172.301 142.516 169.848C143.772 169.72 146.49 169.288 147.44 170.005C148.381 172.109 145.98 181.51 145.961 184.337C145.958 184.808 146.136 184.949 146.465 185.25C147.339 185.444 147.795 185.261 148.373 185.631C148.957 186.699 147.588 189.763 146.657 190.477H140.222C139.135 189.508 138.73 189.14 138.088 187.869C136.785 189.002 135.983 189.61 134.482 190.477H129.759C129.094 190.029 127.538 189.027 127.001 188.542ZM133.727 185.188C134.376 185.273 135.133 185.393 135.777 185.43C136.252 185.42 136.805 185.425 137.112 184.998C138.126 183.585 138.476 181.389 138.605 179.671C138.715 178.197 139.242 174.623 137.013 174.633C136.276 174.895 135.037 175.238 134.759 175.971C133.843 178.382 133.303 182.699 133.727 185.188Z" fill="#FEFEFE"/>
<path d="M0 188.306C0.254948 188.018 0.429131 187.752 0.521336 187.374C0.956974 185.587 0.910687 183.666 1.08384 181.84C1.23426 180.253 1.57249 178.687 1.76996 177.107C2.16661 173.932 2.45209 168.366 3.6662 165.544C4.10357 164.528 4.72211 163.786 5.65715 163.199C5.68145 163.183 5.70536 163.168 5.72971 163.153C6.55834 162.634 21.1788 162.527 22.7559 162.91C22.8774 162.94 22.9944 162.975 23.1117 163.017C23.783 164.547 21.6716 168.675 19.9589 169.197C17.2008 170.037 14.0516 169.53 11.1615 169.738C11.1708 171.182 11.2401 172.206 10.8391 173.606C12.2777 173.455 19.4017 173.171 20.4123 173.838C21.3728 175.337 19.1959 178.346 17.8936 179.095C16.7197 179.86 14.9943 179.907 13.7325 179.935C12.9726 179.951 10.4838 179.741 10.2189 180.317C9.04003 182.883 9.33674 188.107 7.89992 190.477H0V188.306Z" fill="#FEFEFE"/>
<path d="M28.0496 190.477C26.197 189.375 24.8325 188.798 23.5003 187.012C19.3544 181.449 23.2198 172.356 29.4813 170.298C34.0042 168.811 42.1542 168.771 43.8876 174.413C44.157 175.367 44.7974 180.791 43.2222 181.336C40.0369 181.544 33.7001 181.187 30.5636 181.747C30.5497 182.759 30.4294 184.421 31.3021 185.03C33.7444 186.732 35.2714 184.095 36.0785 182.511C37.6865 182.479 42.0453 182.087 43.1562 183.016C43.7653 184.436 42.4714 185.031 41.9327 186.045C40.8061 188.164 39.5255 188.801 37.3935 189.757C36.9754 189.959 36.2374 190.2 35.8966 190.477H28.0496ZM32.3345 175.134L30.9493 177.381C31.9716 177.46 32.7618 177.515 33.7889 177.507C34.4854 177.494 35.2774 177.559 35.8605 177.21C36.2396 176.727 36.164 176.957 36.1545 176.355C35.7909 175.585 34.8164 174.916 34.0072 174.694L32.3345 175.134Z" fill="#FEFEFE"/>
<path d="M85.1006 190.477C82.1069 188.774 80.1044 187.755 79.1123 184.153C78.3435 181.361 79.121 177.713 80.5583 175.223C81.969 172.778 84.6086 170.684 87.3368 169.953C90.0184 169.235 95.2209 169.182 97.6037 170.59C99.0817 171.464 100.182 172.731 100.601 174.411C100.978 175.925 101.329 179.595 100.5 180.91C100.32 181.196 100.094 181.34 99.7569 181.41C97.4946 181.875 88.6093 180.522 87.4925 182.195C87.2171 182.608 87.2337 183.088 87.3468 183.549C87.4884 184.125 87.738 184.628 88.0239 185.144C91.7475 185.893 90.9473 185.462 92.8119 183.191C93.8146 181.972 98.8599 182.541 100.655 182.577C99.5205 185.308 98.355 188.134 95.3862 189.371C94.446 189.763 93.7482 189.822 92.9504 190.477H85.1006ZM87.3894 177.276C88.6078 177.403 89.3762 177.491 90.5919 177.437C91.7047 177.453 92.9961 177.74 93.381 176.482C93.0817 175.082 91.6574 174.629 90.3878 174.661C88.7401 175.329 89.4093 176.056 87.3894 177.276Z" fill="#FEFEFE"/>
<path d="M153.573 161.671C155.076 161.657 160.973 161.372 162 162.044V162.122C160.658 163.256 160.526 168.894 160.261 170.813C159.53 176.137 159.013 181.513 158.117 186.816C157.986 187.596 157.648 189.885 157.31 190.477H149.647C149.506 188.749 150.214 185.973 150.433 184.158L152.167 170.407C152.657 166.73 152.611 165.386 153.573 161.671Z" fill="#FEFEFE"/>
</g>
<defs>
<clipPath id="clip0_1_5">
<rect width="162" height="190.477" fill="white"/>
</clipPath>
</defs>
</svg>
